<mxfile host="65bd71144e">
    <diagram id="3hswl4JPcSf4KPkya-dj" name="Page-1">
        <mxGraphModel dx="2165" dy="1851" grid="1" gridSize="10" guides="1" tooltips="1" connect="1" arrows="1" fold="1" page="1" pageScale="1" pageWidth="827" pageHeight="1169" math="0" shadow="0">
            <root>
                <mxCell id="0"/>
                <mxCell id="1" parent="0"/>
                <mxCell id="2" value="&lt;diagram&gt;&#13;&#10;  &lt;mxGraphModel dx=&quot;1134&quot; dy=&quot;495&quot; grid=&quot;1&quot; gridSize=&quot;10&quot; guides=&quot;1&quot; tooltips=&quot;1&quot; connect=&quot;1&quot; arrows=&quot;1&quot; fold=&quot;1&quot; page=&quot;1&quot; pageScale=&quot;1&quot; pageWidth=&quot;827&quot; pageHeight=&quot;1169&quot; math=&quot;0&quot; shadow=&quot;0&quot;&gt;&#13;&#10;    &lt;root&gt;&#13;&#10;      &lt;mxCell id=&quot;0&quot;/&gt;&#13;&#10;      &lt;mxCell id=&quot;1&quot; parent=&quot;0&quot;/&gt;&#13;&#10;      &lt;mxCell id=&quot;2&quot; value=&quot;Utilisateur&quot; style=&quot;rounded=0;whiteSpace=wrap;html=1;fillColor=#FFFFCC;&quot; vertex=&quot;1&quot; parent=&quot;1&quot;&gt;&#13;&#10;        &lt;mxGeometry x=&quot;60&quot; y=&quot;20&quot; width=&quot;120&quot; height=&quot;80&quot; as=&quot;geometry&quot;/&gt;&#13;&#10;      &lt;/mxCell&gt;&#13;&#10;      &lt;mxCell id=&quot;3&quot; value=&quot;id_utilisateur : N&quot; style=&quot;text;strokeColor=none;fillColor=none;align=left;&quot; vertex=&quot;1&quot; parent=&quot;2&quot;&gt;&#13;&#10;        &lt;mxGeometry x=&quot;10&quot; y=&quot;10&quot; width=&quot;100&quot; height=&quot;20&quot; as=&quot;geometry&quot;/&gt;&#13;&#10;      &lt;/mxCell&gt;&#13;&#10;      &lt;mxCell id=&quot;4&quot; value=&quot;nom : A&quot; style=&quot;text;strokeColor=none;fillColor=none;align=left;&quot; vertex=&quot;1&quot; parent=&quot;2&quot;&gt;&#13;&#10;        &lt;mxGeometry x=&quot;10&quot; y=&quot;30&quot; width=&quot;100&quot; height=&quot;20&quot; as=&quot;geometry&quot;/&gt;&#13;&#10;      &lt;/mxCell&gt;&#13;&#10;      &lt;mxCell id=&quot;5&quot; value=&quot;prénom : A&quot; style=&quot;text;strokeColor=none;fillColor=none;align=left;&quot; vertex=&quot;1&quot; parent=&quot;2&quot;&gt;&#13;&#10;        &lt;mxGeometry x=&quot;10&quot; y=&quot;50&quot; width=&quot;100&quot; height=&quot;20&quot; as=&quot;geometry&quot;/&gt;&#13;&#10;      &lt;/mxCell&gt;&#13;&#10;      &lt;mxCell id=&quot;6&quot; value=&quot;email : A&quot; style=&quot;text;strokeColor=none;fillColor=none;align=left;&quot; vertex=&quot;1&quot; parent=&quot;2&quot;&gt;&#13;&#10;        &lt;mxGeometry x=&quot;10&quot; y=&quot;70&quot; width=&quot;100&quot; height=&quot;20&quot; as=&quot;geometry&quot;/&gt;&#13;&#10;      &lt;/mxCell&gt;&#13;&#10;      &lt;mxCell id=&quot;7&quot; value=&quot;mot_de_passe : A&quot; style=&quot;text;strokeColor=none;fillColor=none;align=left;&quot; vertex=&quot;1&quot; parent=&quot;2&quot;&gt;&#13;&#10;        &lt;mxGeometry x=&quot;10&quot; y=&quot;90&quot; width=&quot;100&quot; height=&quot;20&quot; as=&quot;geometry&quot;/&gt;&#13;&#10;      &lt;/mxCell&gt;&#13;&#10;      &lt;mxCell id=&quot;8&quot; value=&quot;Statistique&quot; style=&quot;rounded=0;whiteSpace=wrap;html=1;fillColor=#FFFFCC;&quot; vertex=&quot;1&quot; parent=&quot;1&quot;&gt;&#13;&#10;        &lt;mxGeometry x=&quot;260&quot; y=&quot;20&quot; width=&quot;120&quot; height=&quot;80&quot; as=&quot;geometry&quot;/&gt;&#13;&#10;      &lt;/mxCell&gt;&#13;&#10;      &lt;mxCell id=&quot;9&quot; value=&quot;id_statistique : N&quot; style=&quot;text;strokeColor=none;fillColor=none;align=left;&quot; vertex=&quot;1&quot; parent=&quot;8&quot;&gt;&#13;&#10;        &lt;mxGeometry x=&quot;10&quot; y=&quot;10&quot; width=&quot;100&quot; height=&quot;20&quot; as=&quot;geometry&quot;/&gt;&#13;&#10;      &lt;/mxCell&gt;&#13;&#10;      &lt;mxCell id=&quot;10&quot; value=&quot;titre : A&quot; style=&quot;text;strokeColor=none;fillColor=none;align=left;&quot; vertex=&quot;1&quot; parent=&quot;8&quot;&gt;&#13;&#10;        &lt;mxGeometry x=&quot;10&quot; y=&quot;30&quot; width=&quot;100&quot; height=&quot;20&quot; as=&quot;geometry&quot;/&gt;&#13;&#10;      &lt;/mxCell&gt;&#13;&#10;      &lt;mxCell id=&quot;11&quot; value=&quot;description : A&quot; style=&quot;text;strokeColor=none;fillColor=none;align=left;&quot; vertex=&quot;1&quot; parent=&quot;8&quot;&gt;&#13;&#10;        &lt;mxGeometry x=&quot;10&quot; y=&quot;50&quot; width=&quot;100&quot; height=&quot;20&quot; as=&quot;geometry&quot;/&gt;&#13;&#10;      &lt;/mxCell&gt;&#13;&#10;      &lt;mxCell id=&quot;12&quot; value=&quot;date_création : Date&quot; style=&quot;text;strokeColor=none;fillColor=none;align=left;&quot; vertex=&quot;1&quot; parent=&quot;8&quot;&gt;&#13;&#10;        &lt;mxGeometry x=&quot;10&quot; y=&quot;70&quot; width=&quot;100&quot; height=&quot;20&quot; as=&quot;geometry&quot;/&gt;&#13;&#10;      &lt;/mxCell&gt;&#13;&#10;      &lt;mxCell id=&quot;13&quot; value=&quot;Rapport&quot; style=&quot;rounded=0;whiteSpace=wrap;html=1;fillColor=#FFFFCC;&quot; vertex=&quot;1&quot; parent=&quot;1&quot;&gt;&#13;&#10;        &lt;mxGeometry x=&quot;460&quot; y=&quot;20&quot; width=&quot;120&quot; height=&quot;80&quot; as=&quot;geometry&quot;/&gt;&#13;&#10;      &lt;/mxCell&gt;&#13;&#10;      &lt;mxCell id=&quot;14&quot; value=&quot;id_rapport : N&quot; style=&quot;text;strokeColor=none;fillColor=none;align=left;&quot; vertex=&quot;1&quot; parent=&quot;13&quot;&gt;&#13;&#10;        &lt;mxGeometry x=&quot;10&quot; y=&quot;10&quot; width=&quot;100&quot; height=&quot;20&quot; as=&quot;geometry&quot;/&gt;&#13;&#10;      &lt;/mxCell&gt;&#13;&#10;      &lt;mxCell id=&quot;15&quot; value=&quot;titre : A&quot; style=&quot;text;strokeColor=none;fillColor=none;align=left;&quot; vertex=&quot;1&quot; parent=&quot;13&quot;&gt;&#13;&#10;        &lt;mxGeometry x=&quot;10&quot; y=&quot;30&quot; width=&quot;100&quot; height=&quot;20&quot; as=&quot;geometry&quot;/&gt;&#13;&#10;      &lt;/mxCell&gt;&#13;&#10;      &lt;mxCell id=&quot;16&quot; value=&quot;date_création : Date&quot; style=&quot;text;strokeColor=none;fillColor=none;align=left;&quot; vertex=&quot;1&quot; parent=&quot;13&quot;&gt;&#13;&#10;        &lt;mxGeometry x=&quot;10&quot; y=&quot;50&quot; width=&quot;100&quot; height=&quot;20&quot; as=&quot;geometry&quot;/&gt;&#13;&#10;      &lt;/mxCell&gt;&#13;&#10;      &lt;mxCell id=&quot;17&quot; value=&quot;format : A&quot; style=&quot;text;strokeColor=none;fillColor=none;align=left;&quot; vertex=&quot;1&quot; parent=&quot;13&quot;&gt;&#13;&#10;        &lt;mxGeometry x=&quot;10&quot; y=&quot;70&quot; width=&quot;100&quot; height=&quot;20&quot; as=&quot;geometry&quot;/&gt;&#13;&#10;      &lt;/mxCell&gt;&#13;&#10;      &lt;mxCell id=&quot;18&quot; value=&quot;id_utilisateur : N&quot; style=&quot;text;strokeColor=none;fillColor=none;align=left;&quot; vertex=&quot;1&quot; parent=&quot;13&quot;&gt;&#13;&#10;        &lt;mxGeometry x=&quot;10&quot; y=&quot;90&quot; width=&quot;100&quot; height=&quot;20&quot; as=&quot;geometry&quot;/&gt;&#13;&#10;      &lt;/mxCell&gt;&#13;&#10;      &lt;mxCell id=&quot;19&quot; value=&quot;Donnée&quot; style=&quot;rounded=0;whiteSpace=wrap;html=1;fillColor=#FFFFCC;&quot; vertex=&quot;1&quot; parent=&quot;1&quot;&gt;&#13;&#10;        &lt;mxGeometry x=&quot;660&quot; y=&quot;20&quot; width=&quot;120&quot; height=&quot;80&quot; as=&quot;geometry&quot;/&gt;&#13;&#10;      &lt;/mxCell&gt;&#13;&#10;      &lt;mxCell id=&quot;20&quot; value=&quot;id_donnée : N&quot; style=&quot;text;strokeColor=none;fillColor=none;align=left;&quot; vertex=&quot;1&quot; parent=&quot;19&quot;&gt;&#13;&#10;        &lt;mxGeometry x=&quot;10&quot; y=&quot;10&quot; width=&quot;100&quot; height=&quot;20&quot; as=&quot;geometry&quot;/&gt;&#13;&#10;      &lt;/mxCell&gt;&#13;&#10;      &lt;mxCell id=&quot;21&quot; value=&quot;source : A&quot; style=&quot;text;strokeColor=none;fillColor=none;align=left;&quot; vertex=&quot;1&quot; parent=&quot;19&quot;&gt;&#13;&#10;        &lt;mxGeometry x=&quot;10&quot; y=&quot;30&quot; width=&quot;100&quot; height=&quot;20&quot; as=&quot;geometry&quot;/&gt;&#13;&#10;      &lt;/mxCell&gt;&#13;&#10;      &lt;mxCell id=&quot;22&quot; value=&quot;type : A&quot; style=&quot;text;strokeColor=none;fillColor=none;align=left;&quot; vertex=&quot;1&quot; parent=&quot;19&quot;&gt;&#13;&#10;        &lt;mxGeometry x=&quot;10&quot; y=&quot;50&quot; width=&quot;100&quot; height=&quot;20&quot; as=&quot;geometry&quot;/&gt;&#13;&#10;      &lt;/mxCell&gt;&#13;&#10;      &lt;mxCell id=&quot;23&quot; value=&quot;contenu : A&quot; style=&quot;text;strokeColor=none;fillColor=none;align=left;&quot; vertex=&quot;1&quot; parent=&quot;19&quot;&gt;&#13;&#10;        &lt;mxGeometry x=&quot;10&quot; y=&quot;70&quot; width=&quot;100&quot; height=&quot;20&quot; as=&quot;geometry&quot;/&gt;&#13;&#10;      &lt;/mxCell&gt;&#13;&#10;      &lt;mxCell id=&quot;24&quot; value=&quot;crée&quot; style=&quot;edgeStyle=orthogonalEdgeStyle;rounded=0;orthogonalLoop=1;&quot; edge=&quot;1&quot; parent=&quot;1&quot; source=&quot;2&quot; target=&quot;13&quot;&gt;&#13;&#10;        &lt;mxGeometry relative=&quot;1&quot; as=&quot;geometry&quot;/&gt;&#13;&#10;      &lt;/mxCell&gt;&#13;&#10;      &lt;mxCell id=&quot;25&quot; value=&quot;utilise&quot; style=&quot;edgeStyle=orthogonalEdgeStyle;rounded=0;orthogonalLoop=1;&quot; edge=&quot;1&quot; parent=&quot;1&quot; source=&quot;13&quot; target=&quot;8&quot;&gt;&#13;&#10;        &lt;mxGeometry relative=&quot;1&quot; as=&quot;geometry&quot;/&gt;&#13;&#10;      &lt;/mxCell&gt;&#13;&#10;      &lt;mxCell id=&quot;26&quot; value=&quot;basée sur&quot; style=&quot;edgeStyle=orthogonalEdgeStyle;rounded=0;orthogonalLoop=1;&quot; edge=&quot;1&quot; parent=&quot;1&quot; source=&quot;8&quot; target=&quot;19&quot;&gt;&#13;&#10;        &lt;mxGeometry relative=&quot;1&quot; as=&quot;geometry&quot;/&gt;&#13;&#10;      &lt;/mxCell&gt;&#13;&#10;    &lt;/root&gt;&#13;&#10;  &lt;/mxGraphModel&gt;&#13;&#10;&lt;/diagram&gt;" style="text;whiteSpace=wrap;html=1;" parent="1" vertex="1">
                    <mxGeometry width="30" height="1200" as="geometry"/>
                </mxCell>
                <mxCell id="3" value="&lt;diagram&gt;&#13;&#10;  &lt;mxGraphModel dx=&quot;1134&quot; dy=&quot;495&quot; grid=&quot;1&quot; gridSize=&quot;10&quot; guides=&quot;1&quot; tooltips=&quot;1&quot; connect=&quot;1&quot; arrows=&quot;1&quot; fold=&quot;1&quot; page=&quot;1&quot; pageScale=&quot;1&quot; pageWidth=&quot;827&quot; pageHeight=&quot;1169&quot; math=&quot;0&quot; shadow=&quot;0&quot;&gt;&#13;&#10;    &lt;root&gt;&#13;&#10;      &lt;mxCell id=&quot;0&quot;/&gt;&#13;&#10;      &lt;mxCell id=&quot;1&quot; parent=&quot;0&quot;/&gt;&#13;&#10;      &lt;mxCell id=&quot;2&quot; value=&quot;Utilisateur&quot; style=&quot;rounded=0;whiteSpace=wrap;html=1;fillColor=#FFFFCC;&quot; vertex=&quot;1&quot; parent=&quot;1&quot;&gt;&#13;&#10;        &lt;mxGeometry x=&quot;60&quot; y=&quot;20&quot; width=&quot;120&quot; height=&quot;80&quot; as=&quot;geometry&quot;/&gt;&#13;&#10;      &lt;/mxCell&gt;&#13;&#10;      &lt;mxCell id=&quot;3&quot; value=&quot;id_utilisateur : N&quot; style=&quot;text;strokeColor=none;fillColor=none;align=left;&quot; vertex=&quot;1&quot; parent=&quot;2&quot;&gt;&#13;&#10;        &lt;mxGeometry x=&quot;10&quot; y=&quot;10&quot; width=&quot;100&quot; height=&quot;20&quot; as=&quot;geometry&quot;/&gt;&#13;&#10;      &lt;/mxCell&gt;&#13;&#10;      &lt;mxCell id=&quot;4&quot; value=&quot;nom : A&quot; style=&quot;text;strokeColor=none;fillColor=none;align=left;&quot; vertex=&quot;1&quot; parent=&quot;2&quot;&gt;&#13;&#10;        &lt;mxGeometry x=&quot;10&quot; y=&quot;30&quot; width=&quot;100&quot; height=&quot;20&quot; as=&quot;geometry&quot;/&gt;&#13;&#10;      &lt;/mxCell&gt;&#13;&#10;      &lt;mxCell id=&quot;5&quot; value=&quot;prénom : A&quot; style=&quot;text;strokeColor=none;fillColor=none;align=left;&quot; vertex=&quot;1&quot; parent=&quot;2&quot;&gt;&#13;&#10;        &lt;mxGeometry x=&quot;10&quot; y=&quot;50&quot; width=&quot;100&quot; height=&quot;20&quot; as=&quot;geometry&quot;/&gt;&#13;&#10;      &lt;/mxCell&gt;&#13;&#10;      &lt;mxCell id=&quot;6&quot; value=&quot;email : A&quot; style=&quot;text;strokeColor=none;fillColor=none;align=left;&quot; vertex=&quot;1&quot; parent=&quot;2&quot;&gt;&#13;&#10;        &lt;mxGeometry x=&quot;10&quot; y=&quot;70&quot; width=&quot;100&quot; height=&quot;20&quot; as=&quot;geometry&quot;/&gt;&#13;&#10;      &lt;/mxCell&gt;&#13;&#10;      &lt;mxCell id=&quot;7&quot; value=&quot;mot_de_passe : A&quot; style=&quot;text;strokeColor=none;fillColor=none;align=left;&quot; vertex=&quot;1&quot; parent=&quot;2&quot;&gt;&#13;&#10;        &lt;mxGeometry x=&quot;10&quot; y=&quot;90&quot; width=&quot;100&quot; height=&quot;20&quot; as=&quot;geometry&quot;/&gt;&#13;&#10;      &lt;/mxCell&gt;&#13;&#10;      &lt;mxCell id=&quot;8&quot; value=&quot;Statistique&quot; style=&quot;rounded=0;whiteSpace=wrap;html=1;fillColor=#FFFFCC;&quot; vertex=&quot;1&quot; parent=&quot;1&quot;&gt;&#13;&#10;        &lt;mxGeometry x=&quot;260&quot; y=&quot;20&quot; width=&quot;120&quot; height=&quot;80&quot; as=&quot;geometry&quot;/&gt;&#13;&#10;      &lt;/mxCell&gt;&#13;&#10;      &lt;mxCell id=&quot;9&quot; value=&quot;id_statistique : N&quot; style=&quot;text;strokeColor=none;fillColor=none;align=left;&quot; vertex=&quot;1&quot; parent=&quot;8&quot;&gt;&#13;&#10;        &lt;mxGeometry x=&quot;10&quot; y=&quot;10&quot; width=&quot;100&quot; height=&quot;20&quot; as=&quot;geometry&quot;/&gt;&#13;&#10;      &lt;/mxCell&gt;&#13;&#10;      &lt;mxCell id=&quot;10&quot; value=&quot;titre : A&quot; style=&quot;text;strokeColor=none;fillColor=none;align=left;&quot; vertex=&quot;1&quot; parent=&quot;8&quot;&gt;&#13;&#10;        &lt;mxGeometry x=&quot;10&quot; y=&quot;30&quot; width=&quot;100&quot; height=&quot;20&quot; as=&quot;geometry&quot;/&gt;&#13;&#10;      &lt;/mxCell&gt;&#13;&#10;      &lt;mxCell id=&quot;11&quot; value=&quot;description : A&quot; style=&quot;text;strokeColor=none;fillColor=none;align=left;&quot; vertex=&quot;1&quot; parent=&quot;8&quot;&gt;&#13;&#10;        &lt;mxGeometry x=&quot;10&quot; y=&quot;50&quot; width=&quot;100&quot; height=&quot;20&quot; as=&quot;geometry&quot;/&gt;&#13;&#10;      &lt;/mxCell&gt;&#13;&#10;      &lt;mxCell id=&quot;12&quot; value=&quot;date_création : Date&quot; style=&quot;text;strokeColor=none;fillColor=none;align=left;&quot; vertex=&quot;1&quot; parent=&quot;8&quot;&gt;&#13;&#10;        &lt;mxGeometry x=&quot;10&quot; y=&quot;70&quot; width=&quot;100&quot; height=&quot;20&quot; as=&quot;geometry&quot;/&gt;&#13;&#10;      &lt;/mxCell&gt;&#13;&#10;      &lt;mxCell id=&quot;13&quot; value=&quot;Rapport&quot; style=&quot;rounded=0;whiteSpace=wrap;html=1;fillColor=#FFFFCC;&quot; vertex=&quot;1&quot; parent=&quot;1&quot;&gt;&#13;&#10;        &lt;mxGeometry x=&quot;460&quot; y=&quot;20&quot; width=&quot;120&quot; height=&quot;80&quot; as=&quot;geometry&quot;/&gt;&#13;&#10;      &lt;/mxCell&gt;&#13;&#10;      &lt;mxCell id=&quot;14&quot; value=&quot;id_rapport : N&quot; style=&quot;text;strokeColor=none;fillColor=none;align=left;&quot; vertex=&quot;1&quot; parent=&quot;13&quot;&gt;&#13;&#10;        &lt;mxGeometry x=&quot;10&quot; y=&quot;10&quot; width=&quot;100&quot; height=&quot;20&quot; as=&quot;geometry&quot;/&gt;&#13;&#10;      &lt;/mxCell&gt;&#13;&#10;      &lt;mxCell id=&quot;15&quot; value=&quot;titre : A&quot; style=&quot;text;strokeColor=none;fillColor=none;align=left;&quot; vertex=&quot;1&quot; parent=&quot;13&quot;&gt;&#13;&#10;        &lt;mxGeometry x=&quot;10&quot; y=&quot;30&quot; width=&quot;100&quot; height=&quot;20&quot; as=&quot;geometry&quot;/&gt;&#13;&#10;      &lt;/mxCell&gt;&#13;&#10;      &lt;mxCell id=&quot;16&quot; value=&quot;date_création : Date&quot; style=&quot;text;strokeColor=none;fillColor=none;align=left;&quot; vertex=&quot;1&quot; parent=&quot;13&quot;&gt;&#13;&#10;        &lt;mxGeometry x=&quot;10&quot; y=&quot;50&quot; width=&quot;100&quot; height=&quot;20&quot; as=&quot;geometry&quot;/&gt;&#13;&#10;      &lt;/mxCell&gt;&#13;&#10;      &lt;mxCell id=&quot;17&quot; value=&quot;format : A&quot; style=&quot;text;strokeColor=none;fillColor=none;align=left;&quot; vertex=&quot;1&quot; parent=&quot;13&quot;&gt;&#13;&#10;        &lt;mxGeometry x=&quot;10&quot; y=&quot;70&quot; width=&quot;100&quot; height=&quot;20&quot; as=&quot;geometry&quot;/&gt;&#13;&#10;      &lt;/mxCell&gt;&#13;&#10;      &lt;mxCell id=&quot;18&quot; value=&quot;id_utilisateur : N&quot; style=&quot;text;strokeColor=none;fillColor=none;align=left;&quot; vertex=&quot;1&quot; parent=&quot;13&quot;&gt;&#13;&#10;        &lt;mxGeometry x=&quot;10&quot; y=&quot;90&quot; width=&quot;100&quot; height=&quot;20&quot; as=&quot;geometry&quot;/&gt;&#13;&#10;      &lt;/mxCell&gt;&#13;&#10;      &lt;mxCell id=&quot;19&quot; value=&quot;Donnée&quot; style=&quot;rounded=0;whiteSpace=wrap;html=1;fillColor=#FFFFCC;&quot; vertex=&quot;1&quot; parent=&quot;1&quot;&gt;&#13;&#10;        &lt;mxGeometry x=&quot;660&quot; y=&quot;20&quot; width=&quot;120&quot; height=&quot;80&quot; as=&quot;geometry&quot;/&gt;&#13;&#10;      &lt;/mxCell&gt;&#13;&#10;      &lt;mxCell id=&quot;20&quot; value=&quot;id_donnée : N&quot; style=&quot;text;strokeColor=none;fillColor=none;align=left;&quot; vertex=&quot;1&quot; parent=&quot;19&quot;&gt;&#13;&#10;        &lt;mxGeometry x=&quot;10&quot; y=&quot;10&quot; width=&quot;100&quot; height=&quot;20&quot; as=&quot;geometry&quot;/&gt;&#13;&#10;      &lt;/mxCell&gt;&#13;&#10;      &lt;mxCell id=&quot;21&quot; value=&quot;source : A&quot; style=&quot;text;strokeColor=none;fillColor=none;align=left;&quot; vertex=&quot;1&quot; parent=&quot;19&quot;&gt;&#13;&#10;        &lt;mxGeometry x=&quot;10&quot; y=&quot;30&quot; width=&quot;100&quot; height=&quot;20&quot; as=&quot;geometry&quot;/&gt;&#13;&#10;      &lt;/mxCell&gt;&#13;&#10;      &lt;mxCell id=&quot;22&quot; value=&quot;type : A&quot; style=&quot;text;strokeColor=none;fillColor=none;align=left;&quot; vertex=&quot;1&quot; parent=&quot;19&quot;&gt;&#13;&#10;        &lt;mxGeometry x=&quot;10&quot; y=&quot;50&quot; width=&quot;100&quot; height=&quot;20&quot; as=&quot;geometry&quot;/&gt;&#13;&#10;      &lt;/mxCell&gt;&#13;&#10;      &lt;mxCell id=&quot;23&quot; value=&quot;contenu : A&quot; style=&quot;text;strokeColor=none;fillColor=none;align=left;&quot; vertex=&quot;1&quot; parent=&quot;19&quot;&gt;&#13;&#10;        &lt;mxGeometry x=&quot;10&quot; y=&quot;70&quot; width=&quot;100&quot; height=&quot;20&quot; as=&quot;geometry&quot;/&gt;&#13;&#10;      &lt;/mxCell&gt;&#13;&#10;      &lt;mxCell id=&quot;24&quot; value=&quot;crée&quot; style=&quot;edgeStyle=orthogonalEdgeStyle;rounded=0;orthogonalLoop=1;&quot; edge=&quot;1&quot; parent=&quot;1&quot; source=&quot;2&quot; target=&quot;13&quot;&gt;&#13;&#10;        &lt;mxGeometry relative=&quot;1&quot; as=&quot;geometry&quot;/&gt;&#13;&#10;      &lt;/mxCell&gt;&#13;&#10;      &lt;mxCell id=&quot;25&quot; value=&quot;utilise&quot; style=&quot;edgeStyle=orthogonalEdgeStyle;rounded=0;orthogonalLoop=1;&quot; edge=&quot;1&quot; parent=&quot;1&quot; source=&quot;13&quot; target=&quot;8&quot;&gt;&#13;&#10;        &lt;mxGeometry relative=&quot;1&quot; as=&quot;geometry&quot;/&gt;&#13;&#10;      &lt;/mxCell&gt;&#13;&#10;      &lt;mxCell id=&quot;26&quot; value=&quot;basée sur&quot; style=&quot;edgeStyle=orthogonalEdgeStyle;rounded=0;orthogonalLoop=1;&quot; edge=&quot;1&quot; parent=&quot;1&quot; source=&quot;8&quot; target=&quot;19&quot;&gt;&#13;&#10;        &lt;mxGeometry relative=&quot;1&quot; as=&quot;geometry&quot;/&gt;&#13;&#10;      &lt;/mxCell&gt;&#13;&#10;    &lt;/root&gt;&#13;&#10;  &lt;/mxGraphModel&gt;&#13;&#10;&lt;/diagram&gt;" style="text;whiteSpace=wrap;html=1;" parent="1" vertex="1">
                    <mxGeometry width="30" height="1200" as="geometry"/>
                </mxCell>
                <mxCell id="4" value="" style="shape=internalStorage;whiteSpace=wrap;html=1;backgroundOutline=1;" vertex="1" parent="1">
                    <mxGeometry x="70" y="96" width="150" height="140" as="geometry"/>
                </mxCell>
                <mxCell id="5" value="Statistique" style="text;html=1;strokeColor=none;fillColor=none;align=center;verticalAlign=middle;whiteSpace=wrap;rounded=0;" vertex="1" parent="1">
                    <mxGeometry x="110" y="86" width="60" height="30" as="geometry"/>
                </mxCell>
                <mxCell id="6" value="id_statistique&lt;br&gt;niveau_education&lt;br&gt;region&lt;br&gt;annee&lt;br&gt;valeur&lt;br&gt;filiere" style="text;html=1;strokeColor=none;fillColor=none;align=center;verticalAlign=middle;whiteSpace=wrap;rounded=0;" vertex="1" parent="1">
                    <mxGeometry x="115" y="156" width="60" height="30" as="geometry"/>
                </mxCell>
                <mxCell id="7" value="pk" style="text;html=1;strokeColor=none;fillColor=none;align=center;verticalAlign=middle;whiteSpace=wrap;rounded=0;" vertex="1" parent="1">
                    <mxGeometry x="50" y="116" width="60" height="30" as="geometry"/>
                </mxCell>
                <mxCell id="11" value="" style="shape=internalStorage;whiteSpace=wrap;html=1;backgroundOutline=1;" vertex="1" parent="1">
                    <mxGeometry x="320" width="140" height="130" as="geometry"/>
                </mxCell>
                <mxCell id="12" value="Rapport" style="text;html=1;strokeColor=none;fillColor=none;align=center;verticalAlign=middle;whiteSpace=wrap;rounded=0;" vertex="1" parent="1">
                    <mxGeometry x="360" y="-10" width="60" height="30" as="geometry"/>
                </mxCell>
                <mxCell id="13" value="id_rapport&lt;br&gt;titre&lt;br&gt;data_creation&lt;br&gt;format&lt;br&gt;chemin_fichier" style="text;html=1;strokeColor=none;fillColor=none;align=center;verticalAlign=middle;whiteSpace=wrap;rounded=0;" vertex="1" parent="1">
                    <mxGeometry x="370" y="55" width="60" height="20" as="geometry"/>
                </mxCell>
                <mxCell id="14" value="pk" style="text;html=1;strokeColor=none;fillColor=none;align=center;verticalAlign=middle;whiteSpace=wrap;rounded=0;" vertex="1" parent="1">
                    <mxGeometry x="300" y="20" width="60" height="30" as="geometry"/>
                </mxCell>
                <mxCell id="15" value="" style="shape=internalStorage;whiteSpace=wrap;html=1;backgroundOutline=1;" vertex="1" parent="1">
                    <mxGeometry x="590" y="134" width="146" height="140" as="geometry"/>
                </mxCell>
                <mxCell id="16" value="Fichier" style="text;html=1;strokeColor=none;fillColor=none;align=center;verticalAlign=middle;whiteSpace=wrap;rounded=0;" vertex="1" parent="1">
                    <mxGeometry x="633" y="134" width="60" height="30" as="geometry"/>
                </mxCell>
                <mxCell id="17" value="id_fichier&lt;br&gt;id_rapport&lt;br&gt;id_stat1&lt;br&gt;nom_fichier&lt;br&gt;contenu&lt;br&gt;date_import" style="text;html=1;strokeColor=none;fillColor=none;align=center;verticalAlign=middle;whiteSpace=wrap;rounded=0;" vertex="1" parent="1">
                    <mxGeometry x="640" y="194" width="60" height="20" as="geometry"/>
                </mxCell>
                <mxCell id="18" value="" style="shape=internalStorage;whiteSpace=wrap;html=1;backgroundOutline=1;" vertex="1" parent="1">
                    <mxGeometry x="340" y="235" width="120" height="130" as="geometry"/>
                </mxCell>
                <mxCell id="19" value="filtre" style="text;html=1;strokeColor=none;fillColor=none;align=center;verticalAlign=middle;whiteSpace=wrap;rounded=0;" vertex="1" parent="1">
                    <mxGeometry x="370" y="235" width="60" height="30" as="geometry"/>
                </mxCell>
                <mxCell id="20" value="id_filtre&lt;br&gt;type&lt;br&gt;valeur" style="text;html=1;strokeColor=none;fillColor=none;align=center;verticalAlign=middle;whiteSpace=wrap;rounded=0;" vertex="1" parent="1">
                    <mxGeometry x="380" y="300" width="60" height="20" as="geometry"/>
                </mxCell>
                <mxCell id="21" value="pk" style="text;html=1;strokeColor=none;fillColor=none;align=center;verticalAlign=middle;whiteSpace=wrap;rounded=0;" vertex="1" parent="1">
                    <mxGeometry x="320" y="280" width="60" height="30" as="geometry"/>
                </mxCell>
                <mxCell id="22" value="Pk&lt;br&gt;Fk&lt;br&gt;Fk" style="text;html=1;strokeColor=none;fillColor=none;align=center;verticalAlign=middle;whiteSpace=wrap;rounded=0;" vertex="1" parent="1">
                    <mxGeometry x="580" y="170" width="40" height="30" as="geometry"/>
                </mxCell>
                <mxCell id="27" value="" style="shape=internalStorage;whiteSpace=wrap;html=1;backgroundOutline=1;dx=40;dy=20;" vertex="1" parent="1">
                    <mxGeometry x="100" y="300" width="160" height="120" as="geometry"/>
                </mxCell>
                <mxCell id="28" value="Statistique_Filtre" style="text;html=1;strokeColor=none;fillColor=none;align=center;verticalAlign=middle;whiteSpace=wrap;rounded=0;" vertex="1" parent="1">
                    <mxGeometry x="160" y="295" width="60" height="30" as="geometry"/>
                </mxCell>
                <mxCell id="29" value="id_stat&lt;br&gt;id_filtr" style="text;html=1;strokeColor=none;fillColor=none;align=center;verticalAlign=middle;whiteSpace=wrap;rounded=0;" vertex="1" parent="1">
                    <mxGeometry x="142.5" y="345" width="60" height="20" as="geometry"/>
                </mxCell>
                <mxCell id="30" value="Pk,Fk&lt;br&gt;Pk,Fk" style="text;html=1;strokeColor=none;fillColor=none;align=center;verticalAlign=middle;whiteSpace=wrap;rounded=0;" vertex="1" parent="1">
                    <mxGeometry x="90" y="345" width="60" height="20" as="geometry"/>
                </mxCell>
                <mxCell id="31" value="" style="endArrow=classic;html=1;exitX=1;exitY=0.5;exitDx=0;exitDy=0;" edge="1" parent="1" source="27">
                    <mxGeometry width="50" height="50" relative="1" as="geometry">
                        <mxPoint x="270" y="265" as="sourcePoint"/>
                        <mxPoint x="340" y="300" as="targetPoint"/>
                    </mxGeometry>
                </mxCell>
                <mxCell id="34" value="" style="endArrow=classic;html=1;exitX=0.25;exitY=1;exitDx=0;exitDy=0;" edge="1" parent="1" source="22">
                    <mxGeometry width="50" height="50" relative="1" as="geometry">
                        <mxPoint x="380" y="240" as="sourcePoint"/>
                        <mxPoint x="230" y="140" as="targetPoint"/>
                    </mxGeometry>
                </mxCell>
                <mxCell id="35" value="" style="endArrow=classic;html=1;exitX=0.25;exitY=0.333;exitDx=0;exitDy=0;exitPerimeter=0;entryX=1.005;entryY=0.315;entryDx=0;entryDy=0;entryPerimeter=0;" edge="1" parent="1" source="22" target="11">
                    <mxGeometry width="50" height="50" relative="1" as="geometry">
                        <mxPoint x="540" y="190" as="sourcePoint"/>
                        <mxPoint x="470" y="100" as="targetPoint"/>
                    </mxGeometry>
                </mxCell>
                <mxCell id="37" value="" style="endArrow=classic;html=1;exitX=-0.016;exitY=0.329;exitDx=0;exitDy=0;exitPerimeter=0;" edge="1" parent="1" target="7">
                    <mxGeometry width="50" height="50" relative="1" as="geometry">
                        <mxPoint x="97.44000000000005" y="345.48000000000025" as="sourcePoint"/>
                        <mxPoint x="60" y="126" as="targetPoint"/>
                        <Array as="points">
                            <mxPoint y="246"/>
                        </Array>
                    </mxGeometry>
                </mxCell>
                <mxCell id="38" value="Modèle logique de données (mld)" style="text;strokeColor=none;fillColor=none;html=1;fontSize=24;fontStyle=1;verticalAlign=middle;align=center;" vertex="1" parent="1">
                    <mxGeometry x="-15" y="-130" width="830" height="80" as="geometry"/>
                </mxCell>
            </root>
        </mxGraphModel>
    </diagram>
</mxfile>